<?xml version="1.0" encoding="UTF-8"?>
<svg xmlns="http://www.w3.org/2000/svg" xmlns:xlink="http://www.w3.org/1999/xlink" width="96px" height="96px" viewBox="0 0 96 96" version="1.1">
<g id="surface1">
<path style=" stroke:none;fill-rule:nonzero;fill:rgb(93.333333%,92.941176%,94.901961%);fill-opacity:1;" d="M 88.425781 48.542969 C 88.425781 70.871094 70.324219 88.96875 48 88.96875 C 25.675781 88.96875 7.574219 70.871094 7.574219 48.542969 C 7.574219 26.21875 25.675781 8.117188 48 8.117188 C 70.324219 8.117188 88.425781 26.21875 88.425781 48.542969 Z M 88.425781 48.542969 "/>
<path style=" stroke:none;fill-rule:nonzero;fill:rgb(82.745098%,83.529412%,90.588235%);fill-opacity:1;" d="M 69.488281 50.082031 L 69.242188 50.136719 L 69.414062 50.304688 C 73.085938 53.867188 69.5625 59.960938 64.648438 58.554688 L 64.40625 58.480469 L 64.460938 58.707031 C 64.875 60.1875 64.632812 61.539062 63.976562 62.585938 L 71.023438 77.644531 C 71.101562 77.8125 70.929688 78 70.742188 77.925781 L 63.5625 74.960938 C 63.449219 74.90625 63.320312 74.980469 63.28125 75.09375 L 60.976562 82.5 C 60.917969 82.6875 60.65625 82.707031 60.582031 82.519531 L 53.230469 66.824219 C 51.957031 67.386719 50.457031 67.386719 49.179688 66.824219 L 41.832031 82.519531 C 41.757812 82.6875 41.492188 82.667969 41.4375 82.5 L 39.132812 75.09375 C 39.09375 74.980469 38.960938 74.90625 38.851562 74.960938 L 31.6875 77.925781 C 31.5 78 31.332031 77.8125 31.40625 77.644531 L 38.457031 62.585938 C 37.800781 61.519531 37.539062 60.167969 37.96875 58.707031 L 38.042969 58.480469 L 37.800781 58.554688 C 32.886719 59.960938 29.363281 53.867188 33.039062 50.304688 L 33.226562 50.136719 L 32.980469 50.082031 C 28.03125 48.84375 28.03125 41.792969 32.980469 40.554688 L 33.226562 40.5 L 33.039062 40.332031 C 29.363281 36.789062 32.886719 30.675781 37.800781 32.082031 L 38.042969 32.15625 L 37.96875 31.914062 C 36.5625 27 42.675781 23.476562 46.21875 27.148438 L 46.386719 27.320312 L 46.445312 27.074219 C 47.679688 22.125 54.730469 22.125 55.96875 27.074219 L 56.023438 27.320312 L 56.195312 27.148438 C 59.757812 23.476562 65.851562 27 64.445312 31.914062 L 64.386719 32.15625 L 64.632812 32.082031 C 68.511719 30.976562 71.511719 34.539062 70.820312 37.835938 C 70.632812 38.71875 70.179688 39.582031 69.394531 40.332031 L 69.226562 40.5 L 69.46875 40.554688 C 74.457031 41.792969 74.457031 48.84375 69.488281 50.082031 Z M 69.488281 50.082031 "/>
<path style="fill-rule:nonzero;fill:rgb(85.490196%,52.54902%,49.019608%);fill-opacity:1;stroke-width:6;stroke-linecap:round;stroke-linejoin:miter;stroke:rgb(11.764706%,14.117647%,49.411765%);stroke-opacity:1;stroke-miterlimit:10;" d="M 245.208333 347 L 206 430.791667 C 205.604167 431.708333 204.208333 431.604167 203.895833 430.708333 L 191.604167 391.208333 C 191.395833 390.604167 190.708333 390.208333 190.104167 390.5 L 151.895833 406.291667 C 150.895833 406.708333 150 405.708333 150.395833 404.791667 L 188 324.5 C 191.395833 330.104167 197 334.291667 203.208333 336.208333 C 211.791667 338.791667 221.708333 337.208333 229.395833 329.291667 L 230.291667 328.395833 L 230.604167 329.708333 C 232.791667 338.208333 238.395833 344.104167 245.208333 347 Z M 245.208333 347 " transform="matrix(0.1875,0,0,0.1875,0,0)"/>
<path style="fill-rule:nonzero;fill:rgb(85.490196%,52.54902%,49.019608%);fill-opacity:1;stroke-width:6;stroke-linecap:round;stroke-linejoin:miter;stroke:rgb(11.764706%,14.117647%,49.411765%);stroke-opacity:1;stroke-miterlimit:10;" d="M 360.208333 406.208333 L 322 390.395833 C 321.395833 390.104167 320.708333 390.5 320.5 391.104167 L 308.208333 430.604167 C 307.895833 431.604167 306.5 431.708333 306.104167 430.708333 L 266.895833 347 C 272.5 344.604167 277.291667 340.208333 280 333.791667 C 280.604167 332.395833 281.104167 330.895833 281.5 329.395833 L 281.791667 328.104167 L 282.708333 329 C 290.395833 336.895833 300.291667 338.604167 308.895833 335.895833 C 315.104167 334 320.708333 329.895833 324.104167 324.208333 L 361.708333 404.5 C 362.104167 405.604167 361.208333 406.604167 360.208333 406.208333 Z M 360.208333 406.208333 " transform="matrix(0.1875,0,0,0.1875,0,0)"/>
<path style="fill-rule:nonzero;fill:rgb(100%,100%,100%);fill-opacity:1;stroke-width:6;stroke-linecap:round;stroke-linejoin:round;stroke:rgb(11.764706%,14.117647%,49.411765%);stroke-opacity:1;stroke-miterlimit:10;" d="M 353.291667 257.604167 L 352 257.895833 L 352.895833 258.791667 C 372.5 277.791667 353.708333 310.291667 327.5 302.791667 L 326.208333 302.395833 L 326.604167 303.604167 C 328.791667 311.5 327.5 318.604167 324 324.291667 C 320.604167 329.895833 315 334.104167 308.791667 336 C 300.208333 338.604167 290.291667 337 282.604167 329.104167 L 281.708333 328.208333 L 281.395833 329.5 C 281 331.104167 280.5 332.5 279.895833 333.895833 C 277.208333 340.291667 272.395833 344.708333 266.791667 347.104167 C 260 350.104167 252 350.104167 245.208333 347.104167 C 238.395833 344.208333 232.791667 338.291667 230.604167 329.5 L 230.291667 328.208333 L 229.395833 329.104167 C 221.708333 337 211.791667 338.708333 203.208333 336 C 197 334.104167 191.395833 330 188 324.291667 C 184.5 318.604167 183.104167 311.395833 185.395833 303.604167 L 185.791667 302.395833 L 184.5 302.791667 C 158.291667 310.291667 139.5 277.791667 159.104167 258.791667 L 160 257.895833 L 158.708333 257.604167 C 132.291667 251 132.291667 213.395833 158.708333 206.791667 L 160 206.5 L 159.104167 205.604167 C 139.5 186.708333 158.291667 154.104167 184.5 161.604167 L 185.791667 162 L 185.395833 160.708333 C 177.895833 134.5 210.395833 115.708333 229.395833 135.291667 L 230.291667 136.208333 L 230.604167 134.895833 C 237.208333 108.395833 274.791667 108.395833 281.395833 134.895833 L 281.708333 136.208333 L 282.604167 135.291667 C 301.604167 115.708333 334.104167 134.5 326.604167 160.708333 L 326.208333 162 L 327.5 161.604167 C 348.208333 155.708333 364.208333 174.708333 360.5 192.291667 C 359.5 197 357.104167 201.604167 352.895833 205.604167 L 352 206.5 L 353.291667 206.791667 C 379.708333 213.395833 379.708333 251 353.291667 257.604167 Z M 353.291667 257.604167 " transform="matrix(0.1875,0,0,0.1875,0,0)"/>
<path style="fill-rule:nonzero;fill:rgb(94.117647%,76.470588%,18.823529%);fill-opacity:1;stroke-width:6;stroke-linecap:round;stroke-linejoin:miter;stroke:rgb(11.764706%,14.117647%,49.411765%);stroke-opacity:1;stroke-miterlimit:10;" d="M 290.708333 281.895833 L 258.104167 265.208333 C 257.104167 264.708333 256 264.708333 255 265.208333 L 222.791667 282.604167 C 222.208333 282.895833 221.395833 282.395833 221.5 281.708333 L 227.291667 245.604167 C 227.5 244.5 227.104167 243.395833 226.291667 242.708333 L 199.791667 217.395833 C 199.291667 216.895833 199.604167 216 200.291667 215.895833 L 236.5 210.208333 C 237.604167 210 238.5 209.291667 239 208.395833 L 254.791667 175.395833 C 255.104167 174.791667 256 174.708333 256.395833 175.395833 L 273 208 C 273.5 209 274.395833 209.604167 275.5 209.791667 L 311.791667 214.708333 C 312.5 214.791667 312.791667 215.708333 312.291667 216.208333 L 286.208333 242 C 285.395833 242.791667 285.104167 243.895833 285.291667 244.895833 L 291.895833 280.895833 C 292 281.708333 291.291667 282.208333 290.708333 281.895833 Z M 290.708333 281.895833 " transform="matrix(0.1875,0,0,0.1875,0,0)"/>
<path style="fill-rule:nonzero;fill:rgb(41.176471%,67.843137%,96.862745%);fill-opacity:1;stroke-width:2.5;stroke-linecap:round;stroke-linejoin:miter;stroke:rgb(11.764706%,14.117647%,49.411765%);stroke-opacity:1;stroke-miterlimit:10;" d="M 203.208333 179.604167 L 211.208333 185.791667 " transform="matrix(0.1875,0,0,0.1875,0,0)"/>
<path style="fill-rule:nonzero;fill:rgb(41.176471%,67.843137%,96.862745%);fill-opacity:1;stroke-width:2.5;stroke-linecap:round;stroke-linejoin:miter;stroke:rgb(11.764706%,14.117647%,49.411765%);stroke-opacity:1;stroke-miterlimit:10;" d="M 203.208333 171.895833 L 219.291667 184.208333 " transform="matrix(0.1875,0,0,0.1875,0,0)"/>
<path style="fill-rule:nonzero;fill:rgb(41.176471%,67.843137%,96.862745%);fill-opacity:1;stroke-width:2.5;stroke-linecap:round;stroke-linejoin:miter;stroke:rgb(11.764706%,14.117647%,49.411765%);stroke-opacity:1;stroke-miterlimit:10;" d="M 214.791667 173 L 219.291667 176.395833 " transform="matrix(0.1875,0,0,0.1875,0,0)"/>
<path style="fill:none;stroke-width:3;stroke-linecap:round;stroke-linejoin:round;stroke:rgb(11.764706%,14.117647%,49.411765%);stroke-opacity:1;stroke-miterlimit:10;" d="M 346 273.791667 C 346.791667 279.791667 343.895833 285.895833 339 289.291667 " transform="matrix(0.1875,0,0,0.1875,0,0)"/>
<path style="fill:none;stroke-width:3;stroke-linecap:round;stroke-linejoin:round;stroke:rgb(11.764706%,14.117647%,49.411765%);stroke-opacity:1;stroke-miterlimit:10;" d="M 336.791667 176.208333 C 341.291667 178.791667 344.291667 183.895833 344.291667 189.104167 " transform="matrix(0.1875,0,0,0.1875,0,0)"/>
<path style=" stroke:none;fill-rule:nonzero;fill:rgb(100%,100%,100%);fill-opacity:1;" d="M 79.648438 61.707031 C 74.960938 61.460938 75.09375 56.269531 75.09375 56.269531 C 74.960938 61.988281 70.273438 61.707031 70.273438 61.707031 C 70.273438 61.707031 75.09375 62.175781 75.09375 67.011719 C 75.09375 67.011719 75.695312 62.175781 79.648438 61.707031 "/>
<path style=" stroke:none;fill-rule:nonzero;fill:rgb(100%,100%,100%);fill-opacity:1;" d="M 82.292969 55.800781 C 80.195312 55.6875 80.25 53.363281 80.25 53.363281 C 80.195312 55.929688 78.09375 55.800781 78.09375 55.800781 C 78.09375 55.800781 80.25 56.007812 80.25 58.179688 C 80.25 58.179688 80.53125 56.007812 82.292969 55.800781 "/>
<path style=" stroke:none;fill-rule:nonzero;fill:rgb(100%,100%,100%);fill-opacity:1;" d="M 76.820312 51.242188 C 75.488281 51.167969 75.523438 49.707031 75.523438 49.707031 C 75.488281 51.320312 74.15625 51.242188 74.15625 51.242188 C 74.15625 51.242188 75.523438 51.375 75.523438 52.742188 C 75.523438 52.742188 75.695312 51.375 76.820312 51.242188 "/>
<path style=" stroke:none;fill-rule:nonzero;fill:rgb(100%,100%,100%);fill-opacity:1;" d="M 24.976562 37.800781 C 23.644531 37.726562 23.679688 36.261719 23.679688 36.261719 C 23.644531 37.875 22.3125 37.800781 22.3125 37.800781 C 22.3125 37.800781 23.679688 37.929688 23.679688 39.300781 C 23.699219 39.300781 23.867188 37.929688 24.976562 37.800781 "/>
<path style=" stroke:none;fill-rule:nonzero;fill:rgb(100%,100%,100%);fill-opacity:1;" d="M 30.261719 28.5 C 28.164062 28.386719 28.21875 26.0625 28.21875 26.0625 C 28.164062 28.632812 26.0625 28.5 26.0625 28.5 C 26.0625 28.5 28.21875 28.707031 28.21875 30.882812 C 28.21875 30.882812 28.5 28.707031 30.261719 28.5 "/>
<path style=" stroke:none;fill-rule:nonzero;fill:rgb(100%,100%,100%);fill-opacity:1;" d="M 24.414062 30.957031 C 20.210938 30.730469 20.324219 26.082031 20.324219 26.082031 C 20.210938 31.199219 16.011719 30.957031 16.011719 30.957031 C 16.011719 30.957031 20.324219 31.367188 20.324219 35.71875 C 20.324219 35.699219 20.851562 31.351562 24.414062 30.957031 "/>
</g>
</svg>
