<?xml version="1.0" encoding="UTF-8"?>
<svg xmlns="http://www.w3.org/2000/svg" xmlns:xlink="http://www.w3.org/1999/xlink" width="96px" height="96px" viewBox="0 0 96 96" version="1.1">
<g id="surface1">
<path style=" stroke:none;fill-rule:nonzero;fill:rgb(93.333333%,92.941176%,94.901961%);fill-opacity:1;" d="M 88.425781 48.507812 C 88.425781 70.832031 70.324219 88.929688 48 88.929688 C 25.675781 88.929688 7.574219 70.832031 7.574219 48.507812 C 7.574219 26.179688 25.675781 8.082031 48 8.082031 C 70.324219 8.082031 88.425781 26.179688 88.425781 48.507812 Z M 88.425781 48.507812 "/>
<path style=" stroke:none;fill-rule:nonzero;fill:rgb(82.745098%,83.529412%,90.588235%);fill-opacity:1;" d="M 53.53125 76.667969 L 53.53125 82.386719 C 53.53125 83.476562 52.648438 84.355469 51.5625 84.355469 L 46.105469 84.355469 C 45.019531 84.355469 44.136719 83.476562 44.136719 82.386719 L 44.136719 76.667969 Z M 53.53125 76.667969 "/>
<path style=" stroke:none;fill-rule:nonzero;fill:rgb(82.745098%,83.529412%,90.588235%);fill-opacity:1;" d="M 73.761719 46.648438 C 73.761719 56.664062 67.875 65.289062 59.363281 69.261719 C 57.132812 70.3125 54.730469 71.023438 52.199219 71.363281 C 51.132812 71.511719 50.042969 71.585938 48.957031 71.585938 C 48.917969 71.585938 48.882812 71.585938 48.84375 71.585938 C 48.804688 71.585938 48.769531 71.585938 48.730469 71.585938 C 47.625 71.585938 46.539062 71.511719 45.46875 71.363281 C 42.9375 71.023438 40.539062 70.3125 38.304688 69.261719 C 29.792969 65.289062 23.90625 56.664062 23.90625 46.648438 C 23.90625 36.917969 29.476562 28.480469 37.613281 24.375 C 40.03125 23.15625 42.675781 22.3125 45.449219 21.9375 C 46.519531 21.789062 47.605469 21.710938 48.730469 21.710938 C 48.769531 21.710938 48.804688 21.710938 48.84375 21.710938 C 48.882812 21.710938 48.917969 21.710938 48.957031 21.710938 C 50.0625 21.710938 51.148438 21.789062 52.21875 21.9375 C 55.011719 22.3125 57.65625 23.15625 60.074219 24.375 C 68.195312 28.5 73.761719 36.917969 73.761719 46.648438 Z M 73.761719 46.648438 "/>
<path style="fill:none;stroke-width:6;stroke-linecap:round;stroke-linejoin:miter;stroke:rgb(82.745098%,83.529412%,90.588235%);stroke-opacity:1;stroke-miterlimit:10;" d="M 239.895833 414.895833 L 198.791667 360.895833 " transform="matrix(0.1875,0,0,0.1875,0,0)"/>
<path style="fill:none;stroke-width:6;stroke-linecap:round;stroke-linejoin:miter;stroke:rgb(82.745098%,83.529412%,90.588235%);stroke-opacity:1;stroke-miterlimit:10;" d="M 260.395833 380.395833 L 260.395833 408.895833 " transform="matrix(0.1875,0,0,0.1875,0,0)"/>
<path style="fill:none;stroke-width:6;stroke-linecap:round;stroke-linejoin:miter;stroke:rgb(82.745098%,83.529412%,90.588235%);stroke-opacity:1;stroke-miterlimit:10;" d="M 280.895833 414.895833 L 322 360.895833 " transform="matrix(0.1875,0,0,0.1875,0,0)"/>
<path style="fill-rule:nonzero;fill:rgb(100%,100%,100%);fill-opacity:1;stroke-width:6;stroke-linecap:butt;stroke-linejoin:miter;stroke:rgb(11.764706%,14.117647%,49.411765%);stroke-opacity:1;stroke-miterlimit:10;" d="M 270.604167 444.791667 L 241.5 444.791667 C 235.708333 444.791667 231 440.104167 231 434.291667 L 231 403.791667 L 281.104167 403.791667 L 281.104167 434.291667 C 281.104167 440.104167 276.395833 444.791667 270.604167 444.791667 Z M 270.604167 444.791667 " transform="matrix(0.1875,0,0,0.1875,0,0)"/>
<path style="fill:none;stroke-width:4;stroke-linecap:round;stroke-linejoin:miter;stroke:rgb(11.764706%,14.117647%,49.411765%);stroke-opacity:1;stroke-miterlimit:10;" d="M 246 435.708333 C 242.5 435.708333 239.604167 432.791667 239.604167 429.291667 " transform="matrix(0.1875,0,0,0.1875,0,0)"/>
<path style="fill:none;stroke-width:6;stroke-linecap:round;stroke-linejoin:miter;stroke:rgb(11.764706%,14.117647%,49.411765%);stroke-opacity:1;stroke-miterlimit:10;" d="M 230.895833 403.791667 L 199.791667 362.895833 " transform="matrix(0.1875,0,0,0.1875,0,0)"/>
<path style="fill:none;stroke-width:6;stroke-linecap:round;stroke-linejoin:miter;stroke:rgb(11.764706%,14.117647%,49.411765%);stroke-opacity:1;stroke-miterlimit:10;" d="M 256 375.291667 L 256 403.791667 " transform="matrix(0.1875,0,0,0.1875,0,0)"/>
<path style="fill:none;stroke-width:6;stroke-linecap:round;stroke-linejoin:miter;stroke:rgb(11.764706%,14.117647%,49.411765%);stroke-opacity:1;stroke-miterlimit:10;" d="M 281.104167 403.791667 L 312.208333 362.895833 " transform="matrix(0.1875,0,0,0.1875,0,0)"/>
<path style="fill-rule:nonzero;fill:rgb(85.490196%,52.54902%,49.019608%);fill-opacity:1;stroke-width:6;stroke-linecap:butt;stroke-linejoin:miter;stroke:rgb(11.764706%,14.117647%,49.411765%);stroke-opacity:1;stroke-miterlimit:10;" d="M 256 375.291667 C 249.895833 375.291667 243.895833 374.895833 238.104167 374.104167 C 224.604167 372.291667 211.791667 368.395833 199.895833 362.895833 C 154.5 341.708333 123.104167 295.708333 123.104167 242.291667 C 123.104167 190.395833 152.791667 145.395833 196.208333 123.5 C 209.104167 117 223.208333 112.5 238 110.5 C 243.895833 109.708333 249.895833 109.291667 256.104167 109.291667 C 230.5 109.291667 209.791667 168.895833 209.791667 242.291667 C 209.791667 315.708333 230.395833 375.291667 256 375.291667 Z M 256 375.291667 " transform="matrix(0.1875,0,0,0.1875,0,0)"/>
<path style="fill-rule:nonzero;fill:rgb(41.176471%,68.235294%,97.254902%);fill-opacity:1;stroke-width:6;stroke-linecap:butt;stroke-linejoin:miter;stroke:rgb(11.764706%,14.117647%,49.411765%);stroke-opacity:1;stroke-miterlimit:10;" d="M 302.291667 242.291667 C 302.291667 168.854167 281.5625 109.291667 256 109.291667 C 230.4375 109.291667 209.708333 168.854167 209.708333 242.291667 C 209.708333 315.75 230.4375 375.291667 256 375.291667 C 281.5625 375.291667 302.291667 315.75 302.291667 242.291667 Z M 302.291667 242.291667 " transform="matrix(0.1875,0,0,0.1875,0,0)"/>
<path style="fill-rule:nonzero;fill:rgb(94.117647%,76.470588%,18.823529%);fill-opacity:1;stroke-width:6;stroke-linecap:butt;stroke-linejoin:miter;stroke:rgb(11.764706%,14.117647%,49.411765%);stroke-opacity:1;stroke-miterlimit:10;" d="M 389 242.291667 C 389 295.708333 357.604167 341.708333 312.208333 362.895833 C 300.291667 368.5 287.5 372.291667 274 374.104167 C 268.104167 374.895833 262.104167 375.291667 256.104167 375.291667 C 281.708333 375.291667 302.395833 315.708333 302.395833 242.291667 C 302.395833 168.895833 281.708333 109.291667 256.104167 109.291667 C 262.208333 109.291667 268.208333 109.708333 274.208333 110.5 C 289.104167 112.5 303.208333 117 316 123.5 C 359.291667 145.5 389 190.395833 389 242.291667 Z M 389 242.291667 " transform="matrix(0.1875,0,0,0.1875,0,0)"/>
<path style="fill:none;stroke-width:4;stroke-linecap:round;stroke-linejoin:miter;stroke:rgb(11.764706%,14.117647%,49.411765%);stroke-opacity:1;stroke-miterlimit:10;" d="M 374 235.895833 C 374.208333 238 374.291667 240.104167 374.395833 242.208333 " transform="matrix(0.1875,0,0,0.1875,0,0)"/>
<path style="fill:none;stroke-width:4;stroke-linecap:round;stroke-linejoin:miter;stroke:rgb(11.764706%,14.117647%,49.411765%);stroke-opacity:1;stroke-miterlimit:10;" d="M 365.604167 201.395833 C 368.791667 209.208333 371.291667 217.5 372.791667 226 " transform="matrix(0.1875,0,0,0.1875,0,0)"/>
<path style="fill:none;stroke-width:2.5;stroke-linecap:round;stroke-linejoin:miter;stroke:rgb(11.764706%,14.117647%,49.411765%);stroke-opacity:1;stroke-miterlimit:10;" d="M 153.5 229.791667 L 162.5 236.708333 " transform="matrix(0.1875,0,0,0.1875,0,0)"/>
<path style="fill:none;stroke-width:2.5;stroke-linecap:round;stroke-linejoin:miter;stroke:rgb(11.764706%,14.117647%,49.411765%);stroke-opacity:1;stroke-miterlimit:10;" d="M 153.5 221.208333 L 171.395833 235 " transform="matrix(0.1875,0,0,0.1875,0,0)"/>
<path style="fill:none;stroke-width:2.5;stroke-linecap:round;stroke-linejoin:miter;stroke:rgb(11.764706%,14.117647%,49.411765%);stroke-opacity:1;stroke-miterlimit:10;" d="M 166.5 222.395833 L 171.395833 226.208333 " transform="matrix(0.1875,0,0,0.1875,0,0)"/>
<path style="fill:none;stroke-width:7;stroke-linecap:round;stroke-linejoin:miter;stroke:rgb(100%,100%,100%);stroke-opacity:1;stroke-miterlimit:10;" d="M 348.395833 103 L 340.5 106.604167 " transform="matrix(0.1875,0,0,0.1875,0,0)"/>
<path style="fill:none;stroke-width:7;stroke-linecap:round;stroke-linejoin:miter;stroke:rgb(100%,100%,100%);stroke-opacity:1;stroke-miterlimit:10;" d="M 337.791667 92.291667 L 332.208333 100.291667 " transform="matrix(0.1875,0,0,0.1875,0,0)"/>
<path style="fill:none;stroke-width:7;stroke-linecap:round;stroke-linejoin:miter;stroke:rgb(100%,100%,100%);stroke-opacity:1;stroke-miterlimit:10;" d="M 322.791667 95.604167 L 323 86.291667 " transform="matrix(0.1875,0,0,0.1875,0,0)"/>
<path style="fill-rule:nonzero;fill:rgb(100%,100%,100%);fill-opacity:1;stroke-width:5;stroke-linecap:round;stroke-linejoin:miter;stroke:rgb(11.764706%,14.117647%,49.411765%);stroke-opacity:1;stroke-miterlimit:10;" d="M 202.791667 318.895833 C 202.791667 332.104167 192.104167 342.791667 178.895833 342.791667 L 81.291667 342.791667 C 70.895833 342.791667 62.395833 334.291667 62.395833 323.895833 C 62.395833 323.291667 62.395833 322.604167 62.5 322 C 62.5 321.604167 62.604167 321.104167 62.708333 320.708333 C 64 313.104167 69.791667 307 77.291667 305.395833 C 78.604167 305.104167 80 305 81.291667 305 C 81.395833 305 81.395833 305 81.5 305 C 81.395833 304 81.291667 302.895833 81.291667 301.791667 C 81.291667 300.104167 81.5 298.395833 81.791667 296.708333 C 84.208333 284.708333 94.708333 275.604167 107.395833 275.604167 C 109.104167 275.604167 110.708333 275.791667 112.291667 276.104167 C 115.895833 265 124.604167 256.104167 135.5 252.208333 C 138.895833 251 142.604167 250.208333 146.395833 250 C 147 250 147.604167 250 148.291667 250 C 148.395833 250 148.5 250 148.604167 250 C 169.395833 250.104167 186.208333 267 186.208333 287.791667 C 186.208333 290.604167 185.895833 293.291667 185.291667 295.895833 C 195.395833 298.708333 202.791667 307.895833 202.791667 318.895833 Z M 202.791667 318.895833 " transform="matrix(0.1875,0,0,0.1875,0,0)"/>
<path style="fill-rule:nonzero;fill:rgb(100%,100%,100%);fill-opacity:1;stroke-width:5;stroke-linecap:round;stroke-linejoin:miter;stroke:rgb(11.764706%,14.117647%,49.411765%);stroke-opacity:1;stroke-miterlimit:10;" d="M 186 287.291667 C 186 298.104167 181.5 307.895833 174.208333 314.791667 " transform="matrix(0.1875,0,0,0.1875,0,0)"/>
<path style="fill:none;stroke-width:5;stroke-linecap:round;stroke-linejoin:miter;stroke:rgb(11.764706%,14.117647%,49.411765%);stroke-opacity:1;stroke-miterlimit:10;" d="M 106.708333 275.5 C 118.708333 275.5 128.708333 283.791667 131.5 294.895833 " transform="matrix(0.1875,0,0,0.1875,0,0)"/>
<path style="fill:none;stroke-width:4;stroke-linecap:round;stroke-linejoin:miter;stroke:rgb(11.764706%,14.117647%,49.411765%);stroke-opacity:1;stroke-miterlimit:10;" d="M 160.791667 262.208333 C 165.395833 264.395833 169.208333 267.791667 171.895833 272.104167 " transform="matrix(0.1875,0,0,0.1875,0,0)"/>
<path style="fill:none;stroke-width:3;stroke-linecap:round;stroke-linejoin:miter;stroke:rgb(11.764706%,14.117647%,49.411765%);stroke-opacity:1;stroke-miterlimit:10;" d="M 76.208333 330.708333 C 75.104167 328.791667 74.395833 326.604167 74.395833 324.208333 C 74.395833 323.791667 74.395833 323.395833 74.5 322.895833 C 74.5 322.604167 74.604167 322.291667 74.604167 322 C 74.791667 320.604167 75.291667 319.395833 75.895833 318.208333 " transform="matrix(0.1875,0,0,0.1875,0,0)"/>
<path style="fill-rule:nonzero;fill:rgb(100%,100%,100%);fill-opacity:1;stroke-width:5;stroke-linecap:round;stroke-linejoin:miter;stroke:rgb(11.764706%,14.117647%,49.411765%);stroke-opacity:1;stroke-miterlimit:10;" d="M 224.5 175.395833 C 224.5 188.604167 213.791667 199.291667 200.604167 199.291667 L 103 199.291667 C 92.604167 199.291667 84.104167 190.791667 84.104167 180.395833 C 84.104167 179.791667 84.104167 179.104167 84.208333 178.5 C 84.208333 178.104167 84.291667 177.604167 84.395833 177.208333 C 85.708333 169.604167 91.5 163.5 99 161.895833 C 100.291667 161.604167 101.708333 161.5 103 161.5 C 103.104167 161.5 103.104167 161.5 103.208333 161.5 C 103.104167 160.5 103 159.395833 103 158.291667 C 103 156.604167 103.208333 154.895833 103.5 153.208333 C 105.895833 141.208333 116.395833 132.104167 129.104167 132.104167 C 130.791667 132.104167 132.395833 132.291667 134 132.604167 C 137.604167 121.5 146.291667 112.604167 157.208333 108.708333 C 160.604167 107.5 164.291667 106.708333 168.104167 106.5 C 168.708333 106.5 169.291667 106.5 170 106.5 C 170.104167 106.5 170.208333 106.5 170.291667 106.5 C 191.104167 106.604167 207.895833 123.5 207.895833 144.291667 C 207.895833 147.104167 207.604167 149.791667 207 152.395833 C 217.104167 155.208333 224.5 164.395833 224.5 175.395833 Z M 224.5 175.395833 " transform="matrix(0.1875,0,0,0.1875,0,0)"/>
<path style="fill-rule:nonzero;fill:rgb(100%,100%,100%);fill-opacity:1;stroke-width:5;stroke-linecap:round;stroke-linejoin:miter;stroke:rgb(11.764706%,14.117647%,49.411765%);stroke-opacity:1;stroke-miterlimit:10;" d="M 207.708333 143.791667 C 207.708333 154.604167 203.208333 164.395833 195.895833 171.291667 " transform="matrix(0.1875,0,0,0.1875,0,0)"/>
<path style="fill:none;stroke-width:5;stroke-linecap:round;stroke-linejoin:miter;stroke:rgb(11.764706%,14.117647%,49.411765%);stroke-opacity:1;stroke-miterlimit:10;" d="M 128.291667 132.104167 C 140.291667 132.104167 150.291667 140.395833 153.104167 151.5 " transform="matrix(0.1875,0,0,0.1875,0,0)"/>
<path style="fill:none;stroke-width:3;stroke-linecap:round;stroke-linejoin:miter;stroke:rgb(11.764706%,14.117647%,49.411765%);stroke-opacity:1;stroke-miterlimit:10;" d="M 182.5 118.708333 C 187.104167 120.895833 190.895833 124.291667 193.604167 128.604167 " transform="matrix(0.1875,0,0,0.1875,0,0)"/>
<path style="fill-rule:nonzero;fill:rgb(100%,100%,100%);fill-opacity:1;stroke-width:5;stroke-linecap:round;stroke-linejoin:miter;stroke:rgb(11.764706%,14.117647%,49.411765%);stroke-opacity:1;stroke-miterlimit:10;" d="M 456.791667 302 C 456.791667 315.208333 446.104167 325.895833 432.895833 325.895833 L 335.291667 325.895833 C 324.895833 325.895833 316.395833 317.395833 316.395833 307 C 316.395833 306.395833 316.395833 305.708333 316.5 305.104167 C 316.5 304.708333 316.604167 304.208333 316.708333 303.791667 C 318 296.208333 323.791667 290.104167 331.291667 288.5 C 332.604167 288.208333 334 288.104167 335.291667 288.104167 C 335.395833 288.104167 335.395833 288.104167 335.5 288.104167 C 335.395833 287.104167 335.291667 286 335.291667 284.895833 C 335.291667 283.208333 335.5 281.5 335.791667 279.791667 C 338.208333 267.791667 348.708333 258.708333 361.395833 258.708333 C 363.104167 258.708333 364.708333 258.895833 366.291667 259.208333 C 369.895833 248.104167 378.604167 239.208333 389.5 235.291667 C 392.895833 234.104167 396.604167 233.291667 400.395833 233.104167 C 401 233.104167 401.604167 233.104167 402.291667 233.104167 C 402.395833 233.104167 402.5 233.104167 402.604167 233.104167 C 423.395833 233.208333 440.208333 250.104167 440.208333 270.895833 C 440.208333 273.708333 439.895833 276.395833 439.291667 279 C 449.291667 281.791667 456.791667 291 456.791667 302 Z M 456.791667 302 " transform="matrix(0.1875,0,0,0.1875,0,0)"/>
<path style="fill-rule:nonzero;fill:rgb(100%,100%,100%);fill-opacity:1;stroke-width:5;stroke-linecap:round;stroke-linejoin:miter;stroke:rgb(11.764706%,14.117647%,49.411765%);stroke-opacity:1;stroke-miterlimit:10;" d="M 440 270.395833 C 440 281.208333 435.5 291 428.208333 297.895833 " transform="matrix(0.1875,0,0,0.1875,0,0)"/>
<path style="fill:none;stroke-width:5;stroke-linecap:round;stroke-linejoin:miter;stroke:rgb(11.764706%,14.117647%,49.411765%);stroke-opacity:1;stroke-miterlimit:10;" d="M 360.604167 258.708333 C 372.604167 258.708333 382.604167 267 385.395833 278.104167 " transform="matrix(0.1875,0,0,0.1875,0,0)"/>
<path style="fill:none;stroke-width:3;stroke-linecap:round;stroke-linejoin:miter;stroke:rgb(11.764706%,14.117647%,49.411765%);stroke-opacity:1;stroke-miterlimit:10;" d="M 414.708333 245.291667 C 419.291667 247.5 423.104167 250.895833 425.791667 255.208333 " transform="matrix(0.1875,0,0,0.1875,0,0)"/>
</g>
</svg>
