<?xml version="1.0" encoding="UTF-8"?>
<svg xmlns="http://www.w3.org/2000/svg" xmlns:xlink="http://www.w3.org/1999/xlink" width="96px" height="96px" viewBox="0 0 96 96" version="1.1">
<g id="surface1">
<path style=" stroke:none;fill-rule:nonzero;fill:rgb(93.333333%,92.941176%,94.901961%);fill-opacity:1;" d="M 87.414062 48.355469 C 87.414062 70.683594 69.3125 88.78125 46.988281 88.78125 C 24.660156 88.78125 6.5625 70.683594 6.5625 48.355469 C 6.5625 26.03125 24.660156 7.929688 46.988281 7.929688 C 69.3125 7.929688 87.414062 26.03125 87.414062 48.355469 Z M 87.414062 48.355469 "/>
<path style="fill:none;stroke-width:7;stroke-linecap:round;stroke-linejoin:miter;stroke:rgb(100%,100%,100%);stroke-opacity:1;stroke-miterlimit:10;" d="M 266.104167 69.895833 L 264.291667 60.791667 " transform="matrix(0.1875,0,0,0.1875,0,0)"/>
<path style="fill:none;stroke-width:7;stroke-linecap:round;stroke-linejoin:miter;stroke:rgb(100%,100%,100%);stroke-opacity:1;stroke-miterlimit:10;" d="M 280.104167 63.708333 L 276.208333 72.708333 " transform="matrix(0.1875,0,0,0.1875,0,0)"/>
<path style="fill:none;stroke-width:7;stroke-linecap:round;stroke-linejoin:miter;stroke:rgb(100%,100%,100%);stroke-opacity:1;stroke-miterlimit:10;" d="M 292.708333 72.104167 L 285.604167 77.208333 " transform="matrix(0.1875,0,0,0.1875,0,0)"/>
<path style=" stroke:none;fill-rule:nonzero;fill:rgb(82.745098%,83.529412%,90.588235%);fill-opacity:1;" d="M 62.101562 67.3125 L 25.292969 77.289062 C 24.226562 77.570312 23.136719 76.949219 22.835938 75.882812 L 10.125 28.894531 C 9.84375 27.824219 10.460938 26.738281 11.53125 26.4375 L 48.335938 16.460938 C 49.40625 16.179688 50.492188 16.800781 50.792969 17.867188 L 63.507812 64.875 C 63.789062 65.925781 63.167969 67.03125 62.101562 67.3125 Z M 62.101562 67.3125 "/>
<path style="fill-rule:nonzero;fill:rgb(85.882353%,90.588235%,99.607843%);fill-opacity:1;stroke-width:6;stroke-linecap:round;stroke-linejoin:miter;stroke:rgb(11.764706%,14.117647%,49.411765%);stroke-opacity:1;stroke-miterlimit:10;" d="M 325.5 370.395833 L 129.208333 423.604167 C 123.5 425.104167 117.708333 421.791667 116.104167 416.104167 L 48.208333 165.5 C 46.708333 159.791667 50 154 55.708333 152.395833 L 252 99.208333 C 257.708333 97.708333 263.5 101 265.104167 106.708333 L 333 357.395833 C 334.5 363 331.208333 368.895833 325.5 370.395833 Z M 325.5 370.395833 " transform="matrix(0.1875,0,0,0.1875,0,0)"/>
<path style="fill:none;stroke-width:3;stroke-linecap:round;stroke-linejoin:miter;stroke:rgb(11.764706%,14.117647%,49.411765%);stroke-opacity:1;stroke-miterlimit:10;" d="M 129.895833 412.5 C 126.708333 413.395833 123.395833 411.5 122.604167 408.291667 " transform="matrix(0.1875,0,0,0.1875,0,0)"/>
<path style="fill-rule:nonzero;fill:rgb(41.176471%,67.843137%,96.862745%);fill-opacity:1;stroke-width:2.5;stroke-linecap:round;stroke-linejoin:miter;stroke:rgb(11.764706%,14.117647%,49.411765%);stroke-opacity:1;stroke-miterlimit:10;" d="M 65.5 175.208333 L 73.5 181.395833 " transform="matrix(0.1875,0,0,0.1875,0,0)"/>
<path style="fill-rule:nonzero;fill:rgb(41.176471%,67.843137%,96.862745%);fill-opacity:1;stroke-width:2.5;stroke-linecap:round;stroke-linejoin:miter;stroke:rgb(11.764706%,14.117647%,49.411765%);stroke-opacity:1;stroke-miterlimit:10;" d="M 65.5 167.5 L 81.604167 179.791667 " transform="matrix(0.1875,0,0,0.1875,0,0)"/>
<path style="fill-rule:nonzero;fill:rgb(41.176471%,67.843137%,96.862745%);fill-opacity:1;stroke-width:2.5;stroke-linecap:round;stroke-linejoin:miter;stroke:rgb(11.764706%,14.117647%,49.411765%);stroke-opacity:1;stroke-miterlimit:10;" d="M 77.208333 168.604167 L 81.604167 171.895833 " transform="matrix(0.1875,0,0,0.1875,0,0)"/>
<path style=" stroke:none;fill-rule:nonzero;fill:rgb(94.509804%,96.470588%,100%);fill-opacity:1;" d="M 43.292969 54.242188 C 43.460938 54.898438 43.085938 55.554688 42.429688 55.726562 L 24.992188 60.449219 C 24.355469 60.617188 23.679688 60.242188 23.511719 59.605469 L 23.042969 57.84375 C 22.835938 57.054688 23.289062 56.25 24.09375 56.023438 L 41.289062 51.375 C 41.945312 51.207031 42.617188 51.582031 42.789062 52.238281 Z M 43.292969 54.242188 "/>
<path style=" stroke:none;fill-rule:nonzero;fill:rgb(94.509804%,96.470588%,100%);fill-opacity:1;" d="M 41.0625 46.6875 C 41.230469 47.34375 40.855469 48 40.199219 48.167969 L 22.761719 52.894531 C 22.125 53.0625 21.449219 52.6875 21.28125 52.050781 L 20.8125 50.289062 C 20.605469 49.5 21.054688 48.695312 21.863281 48.46875 L 39.054688 43.820312 C 39.710938 43.648438 40.386719 44.023438 40.554688 44.679688 Z M 41.0625 46.6875 "/>
<path style=" stroke:none;fill-rule:nonzero;fill:rgb(94.509804%,96.470588%,100%);fill-opacity:1;" d="M 38.925781 39.242188 C 39.09375 39.898438 38.71875 40.554688 38.0625 40.726562 L 20.625 45.449219 C 19.988281 45.617188 19.3125 45.242188 19.144531 44.605469 L 18.675781 42.84375 C 18.46875 42.054688 18.917969 41.25 19.726562 41.023438 L 36.917969 36.375 C 37.574219 36.207031 38.25 36.582031 38.417969 37.238281 Z M 38.925781 39.242188 "/>
<path style=" stroke:none;fill-rule:nonzero;fill:rgb(94.509804%,96.470588%,100%);fill-opacity:1;" d="M 36.863281 31.6875 C 37.03125 32.34375 36.65625 33 36 33.167969 L 18.5625 37.894531 C 17.925781 38.0625 17.25 37.6875 17.082031 37.050781 L 16.613281 35.289062 C 16.40625 34.5 16.855469 33.695312 17.664062 33.46875 L 34.855469 28.820312 C 35.511719 28.648438 36.1875 29.023438 36.355469 29.679688 Z M 36.863281 31.6875 "/>
<path style=" stroke:none;fill-rule:nonzero;fill:rgb(82.745098%,83.529412%,90.588235%);fill-opacity:1;" d="M 63.09375 82.742188 L 29.886719 63.992188 C 28.929688 63.449219 28.59375 62.230469 29.136719 61.273438 L 53.082031 18.898438 C 53.625 17.945312 54.84375 17.605469 55.800781 18.148438 L 89.007812 36.898438 C 89.960938 37.445312 90.300781 38.664062 89.757812 39.617188 L 65.8125 81.976562 C 65.269531 82.949219 64.050781 83.289062 63.09375 82.742188 Z M 63.09375 82.742188 "/>
<path style="fill-rule:nonzero;fill:rgb(41.176471%,68.235294%,97.254902%);fill-opacity:1;stroke-width:6;stroke-linecap:round;stroke-linejoin:miter;stroke:rgb(11.764706%,14.117647%,49.411765%);stroke-opacity:1;stroke-miterlimit:10;" d="M 322.5 444.895833 L 145.395833 344.895833 C 140.291667 342 138.5 335.5 141.395833 330.395833 L 269.104167 104.395833 C 272 99.291667 278.5 97.5 283.604167 100.395833 L 460.708333 200.395833 C 465.791667 203.291667 467.604167 209.791667 464.708333 214.895833 L 337 440.895833 C 334.104167 446 327.604167 447.791667 322.5 444.895833 Z M 322.5 444.895833 " transform="matrix(0.1875,0,0,0.1875,0,0)"/>
<path style="fill:none;stroke-width:3;stroke-linecap:round;stroke-linejoin:miter;stroke:rgb(11.764706%,14.117647%,49.411765%);stroke-opacity:1;stroke-miterlimit:10;" d="M 274.708333 111.604167 C 276.208333 108.895833 279.604167 108 282.291667 109.5 " transform="matrix(0.1875,0,0,0.1875,0,0)"/>
<path style="fill-rule:nonzero;fill:rgb(41.176471%,67.843137%,96.862745%);fill-opacity:1;stroke-width:2.5;stroke-linecap:round;stroke-linejoin:miter;stroke:rgb(11.764706%,14.117647%,49.411765%);stroke-opacity:1;stroke-miterlimit:10;" d="M 343.291667 208.791667 L 351.395833 215 " transform="matrix(0.1875,0,0,0.1875,0,0)"/>
<path style="fill-rule:nonzero;fill:rgb(41.176471%,67.843137%,96.862745%);fill-opacity:1;stroke-width:2.5;stroke-linecap:round;stroke-linejoin:miter;stroke:rgb(11.764706%,14.117647%,49.411765%);stroke-opacity:1;stroke-miterlimit:10;" d="M 343.291667 201.104167 L 359.395833 213.5 " transform="matrix(0.1875,0,0,0.1875,0,0)"/>
<path style="fill-rule:nonzero;fill:rgb(41.176471%,67.843137%,96.862745%);fill-opacity:1;stroke-width:2.5;stroke-linecap:round;stroke-linejoin:miter;stroke:rgb(11.764706%,14.117647%,49.411765%);stroke-opacity:1;stroke-miterlimit:10;" d="M 355 202.208333 L 359.395833 205.604167 " transform="matrix(0.1875,0,0,0.1875,0,0)"/>
<path style="fill-rule:nonzero;fill:rgb(100%,100%,100%);fill-opacity:1;stroke-width:5;stroke-linecap:round;stroke-linejoin:miter;stroke:rgb(11.764706%,14.117647%,49.411765%);stroke-opacity:1;stroke-miterlimit:10;" d="M 153.791667 210.395833 L 167.208333 221.104167 L 138.895833 256.395833 L 125.5 245.708333 C 115.791667 237.895833 114.208333 223.708333 122 213.895833 C 125.895833 209 131.395833 206.208333 137.208333 205.604167 C 142.895833 204.895833 148.895833 206.5 153.791667 210.395833 Z M 153.791667 210.395833 " transform="matrix(0.1875,0,0,0.1875,0,0)"/>
<path style="fill:none;stroke-width:3;stroke-linecap:round;stroke-linejoin:miter;stroke:rgb(11.764706%,14.117647%,49.411765%);stroke-opacity:1;stroke-miterlimit:10;" d="M 126.895833 225.395833 C 126.395833 223.104167 126.895833 220.604167 128.5 218.604167 C 129.895833 216.895833 131.895833 215.791667 133.895833 215.604167 " transform="matrix(0.1875,0,0,0.1875,0,0)"/>
<path style="fill-rule:nonzero;fill:rgb(94.117647%,76.470588%,18.823529%);fill-opacity:1;stroke-width:5;stroke-linecap:round;stroke-linejoin:miter;stroke:rgb(11.764706%,14.117647%,49.411765%);stroke-opacity:1;stroke-miterlimit:10;" d="M 167.395833 221.291667 L 317.104167 341.291667 C 317.208333 341.395833 317.291667 341.604167 317.208333 341.791667 L 289.291667 376.604167 C 289.208333 376.708333 289 376.791667 288.791667 376.604167 L 139.104167 256.604167 C 139 256.5 138.895833 256.291667 139 256.104167 L 166.895833 221.291667 C 167.104167 221.208333 167.291667 221.208333 167.395833 221.291667 Z M 167.395833 221.291667 " transform="matrix(0.1875,0,0,0.1875,0,0)"/>
<path style="fill:none;stroke-width:5;stroke-linecap:round;stroke-linejoin:miter;stroke:rgb(11.764706%,14.117647%,49.411765%);stroke-opacity:1;stroke-miterlimit:10;" d="M 156.291667 250 L 298.604167 364.104167 " transform="matrix(0.1875,0,0,0.1875,0,0)"/>
<path style="fill:none;stroke-width:5;stroke-linecap:round;stroke-linejoin:miter;stroke:rgb(11.764706%,14.117647%,49.411765%);stroke-opacity:1;stroke-miterlimit:10;" d="M 165.895833 238.208333 L 308 352.104167 " transform="matrix(0.1875,0,0,0.1875,0,0)"/>
<path style="fill-rule:nonzero;fill:rgb(47.45098%,79.215686%,63.137255%);fill-opacity:1;stroke-width:5;stroke-linecap:round;stroke-linejoin:miter;stroke:rgb(11.764706%,14.117647%,49.411765%);stroke-opacity:1;stroke-miterlimit:10;" d="M 132.303962 233.195526 L 177.506678 233.196878 L 177.49008 247.200526 L 132.287364 247.199174 Z M 132.303962 233.195526 " transform="matrix(0.117262,-0.146306,0.146306,0.117262,-24.265069,39.531337)"/>
<path style="fill-rule:nonzero;fill:rgb(100%,100%,100%);fill-opacity:1;stroke-width:5;stroke-linecap:round;stroke-linejoin:miter;stroke:rgb(11.764706%,14.117647%,49.411765%);stroke-opacity:1;stroke-miterlimit:10;" d="M 317.5 341.791667 L 328.791667 365.104167 L 314.708333 382.708333 L 289.5 376.791667 C 289.291667 376.791667 289.291667 376.604167 289.395833 376.5 L 317.208333 341.791667 C 317.291667 341.604167 317.5 341.708333 317.5 341.791667 Z M 317.5 341.791667 " transform="matrix(0.1875,0,0,0.1875,0,0)"/>
<path style="fill-rule:nonzero;fill:rgb(87.843137%,57.254902%,52.941176%);fill-opacity:1;stroke-width:5;stroke-linecap:round;stroke-linejoin:miter;stroke:rgb(11.764706%,14.117647%,49.411765%);stroke-opacity:1;stroke-miterlimit:10;" d="M 328.791667 365.104167 L 338.791667 385.895833 C 339.395833 387.104167 338.291667 388.291667 337.104167 388.104167 L 314.604167 382.791667 Z M 328.791667 365.104167 " transform="matrix(0.1875,0,0,0.1875,0,0)"/>
<path style="fill-rule:nonzero;fill:rgb(85.490196%,52.54902%,49.019608%);fill-opacity:1;stroke-width:5;stroke-linecap:round;stroke-linejoin:miter;stroke:rgb(11.764706%,14.117647%,49.411765%);stroke-opacity:1;stroke-miterlimit:10;" d="M 386.395833 287.791667 L 356.395833 326.604167 C 356 327.208333 355.208333 327.291667 354.604167 326.791667 L 170 184.208333 C 169.395833 183.791667 169.291667 183 169.791667 182.395833 L 199.791667 143.604167 C 200.208333 143 201 142.895833 201.604167 143.395833 L 386.208333 286 C 386.708333 286.395833 386.791667 287.208333 386.395833 287.791667 Z M 386.395833 287.791667 " transform="matrix(0.1875,0,0,0.1875,0,0)"/>
<path style="fill:none;stroke-width:5;stroke-linecap:round;stroke-linejoin:miter;stroke:rgb(11.764706%,14.117647%,49.411765%);stroke-opacity:1;stroke-miterlimit:10;" d="M 184.604167 195.5 L 196.604167 179.895833 " transform="matrix(0.1875,0,0,0.1875,0,0)"/>
<path style="fill:none;stroke-width:5;stroke-linecap:round;stroke-linejoin:miter;stroke:rgb(11.764706%,14.117647%,49.411765%);stroke-opacity:1;stroke-miterlimit:10;" d="M 196.291667 204.5 L 202.291667 196.791667 " transform="matrix(0.1875,0,0,0.1875,0,0)"/>
<path style="fill:none;stroke-width:5;stroke-linecap:round;stroke-linejoin:miter;stroke:rgb(11.764706%,14.117647%,49.411765%);stroke-opacity:1;stroke-miterlimit:10;" d="M 208.395833 213.791667 L 220.395833 198.291667 " transform="matrix(0.1875,0,0,0.1875,0,0)"/>
<path style="fill:none;stroke-width:5;stroke-linecap:round;stroke-linejoin:miter;stroke:rgb(11.764706%,14.117647%,49.411765%);stroke-opacity:1;stroke-miterlimit:10;" d="M 220.395833 223.208333 L 226.5 215.395833 " transform="matrix(0.1875,0,0,0.1875,0,0)"/>
<path style="fill:none;stroke-width:5;stroke-linecap:round;stroke-linejoin:miter;stroke:rgb(11.764706%,14.117647%,49.411765%);stroke-opacity:1;stroke-miterlimit:10;" d="M 232.5 232.395833 L 244.5 216.895833 " transform="matrix(0.1875,0,0,0.1875,0,0)"/>
<path style="fill:none;stroke-width:5;stroke-linecap:round;stroke-linejoin:miter;stroke:rgb(11.764706%,14.117647%,49.411765%);stroke-opacity:1;stroke-miterlimit:10;" d="M 244.604167 241.791667 L 250.604167 234 " transform="matrix(0.1875,0,0,0.1875,0,0)"/>
<path style="fill:none;stroke-width:5;stroke-linecap:round;stroke-linejoin:miter;stroke:rgb(11.764706%,14.117647%,49.411765%);stroke-opacity:1;stroke-miterlimit:10;" d="M 256.291667 250.791667 L 268.291667 235.208333 " transform="matrix(0.1875,0,0,0.1875,0,0)"/>
<path style="fill:none;stroke-width:5;stroke-linecap:round;stroke-linejoin:miter;stroke:rgb(11.764706%,14.117647%,49.411765%);stroke-opacity:1;stroke-miterlimit:10;" d="M 268.291667 260.104167 L 274.291667 252.291667 " transform="matrix(0.1875,0,0,0.1875,0,0)"/>
<path style="fill:none;stroke-width:5;stroke-linecap:round;stroke-linejoin:miter;stroke:rgb(11.764706%,14.117647%,49.411765%);stroke-opacity:1;stroke-miterlimit:10;" d="M 280.104167 269.208333 L 292.104167 253.708333 " transform="matrix(0.1875,0,0,0.1875,0,0)"/>
<path style="fill:none;stroke-width:5;stroke-linecap:round;stroke-linejoin:miter;stroke:rgb(11.764706%,14.117647%,49.411765%);stroke-opacity:1;stroke-miterlimit:10;" d="M 292.208333 278.604167 L 298.208333 270.791667 " transform="matrix(0.1875,0,0,0.1875,0,0)"/>
<path style="fill:none;stroke-width:5;stroke-linecap:round;stroke-linejoin:miter;stroke:rgb(11.764706%,14.117647%,49.411765%);stroke-opacity:1;stroke-miterlimit:10;" d="M 304 287.708333 L 316 272.104167 " transform="matrix(0.1875,0,0,0.1875,0,0)"/>
<path style="fill:none;stroke-width:5;stroke-linecap:round;stroke-linejoin:miter;stroke:rgb(11.764706%,14.117647%,49.411765%);stroke-opacity:1;stroke-miterlimit:10;" d="M 316.104167 297 L 322.104167 289.208333 " transform="matrix(0.1875,0,0,0.1875,0,0)"/>
<path style="fill:none;stroke-width:5;stroke-linecap:round;stroke-linejoin:miter;stroke:rgb(11.764706%,14.117647%,49.411765%);stroke-opacity:1;stroke-miterlimit:10;" d="M 328 306.208333 L 340 290.604167 " transform="matrix(0.1875,0,0,0.1875,0,0)"/>
<path style="fill:none;stroke-width:5;stroke-linecap:round;stroke-linejoin:miter;stroke:rgb(11.764706%,14.117647%,49.411765%);stroke-opacity:1;stroke-miterlimit:10;" d="M 340 315.5 L 346.104167 307.708333 " transform="matrix(0.1875,0,0,0.1875,0,0)"/>
</g>
</svg>
