<?xml version="1.0" encoding="UTF-8"?>
<svg xmlns="http://www.w3.org/2000/svg" xmlns:xlink="http://www.w3.org/1999/xlink" width="96px" height="96px" viewBox="0 0 96 96" version="1.1">
<g id="surface1">
<path style=" stroke:none;fill-rule:nonzero;fill:rgb(93.333333%,92.941176%,94.901961%);fill-opacity:1;" d="M 88.3125 48.414062 C 88.3125 70.738281 70.214844 88.835938 47.886719 88.835938 C 25.5625 88.835938 7.460938 70.738281 7.460938 48.414062 C 7.460938 26.085938 25.5625 7.988281 47.886719 7.988281 C 70.214844 7.988281 88.3125 26.085938 88.3125 48.414062 Z M 88.3125 48.414062 "/>
<path style=" stroke:none;fill-rule:nonzero;fill:rgb(82.745098%,83.529412%,90.588235%);fill-opacity:1;" d="M 82.6875 31.929688 L 82.6875 69.75 C 82.6875 72.542969 80.4375 74.792969 77.644531 74.792969 L 59.738281 74.792969 C 59.324219 74.792969 58.914062 74.960938 58.632812 75.28125 L 51.65625 82.875 C 51.335938 83.210938 50.792969 83.210938 50.476562 82.875 L 43.5 75.28125 C 43.21875 74.980469 42.804688 74.792969 42.394531 74.792969 L 24.488281 74.792969 C 21.695312 74.792969 19.445312 72.542969 19.445312 69.75 L 19.445312 31.929688 C 19.445312 29.136719 21.695312 26.886719 24.488281 26.886719 L 77.664062 26.886719 C 80.4375 26.886719 82.6875 29.136719 82.6875 31.929688 Z M 82.6875 31.929688 "/>
<path style="fill-rule:nonzero;fill:rgb(100%,100%,100%);fill-opacity:1;stroke-width:6;stroke-linecap:butt;stroke-linejoin:miter;stroke:rgb(11.764706%,14.117647%,49.411765%);stroke-opacity:1;stroke-miterlimit:10;" d="M 424.208333 156.395833 L 424.208333 358.104167 C 424.208333 373 412.208333 385 397.291667 385 L 301.791667 385 C 299.604167 385 297.395833 385.895833 295.895833 387.604167 L 258.708333 428.104167 C 257 429.895833 254.104167 429.895833 252.395833 428.104167 L 215.208333 387.604167 C 213.708333 386 211.5 385 209.291667 385 L 113.791667 385 C 98.895833 385 86.895833 373 86.895833 358.104167 L 86.895833 156.395833 C 86.895833 141.5 98.895833 129.5 113.791667 129.5 L 397.395833 129.5 C 412.104167 129.5 424.208333 141.5 424.208333 156.395833 Z M 424.208333 156.395833 " transform="matrix(0.1875,0,0,0.1875,0,0)"/>
<path style="fill:none;stroke-width:2.5;stroke-linecap:round;stroke-linejoin:miter;stroke:rgb(11.764706%,14.117647%,49.411765%);stroke-opacity:1;stroke-miterlimit:10;" d="M 121 169.291667 L 128.791667 175.395833 " transform="matrix(0.1875,0,0,0.1875,0,0)"/>
<path style="fill:none;stroke-width:2.5;stroke-linecap:round;stroke-linejoin:miter;stroke:rgb(11.764706%,14.117647%,49.411765%);stroke-opacity:1;stroke-miterlimit:10;" d="M 121 161.791667 L 136.708333 173.895833 " transform="matrix(0.1875,0,0,0.1875,0,0)"/>
<path style="fill:none;stroke-width:2.5;stroke-linecap:round;stroke-linejoin:miter;stroke:rgb(11.764706%,14.117647%,49.411765%);stroke-opacity:1;stroke-miterlimit:10;" d="M 132.395833 162.895833 L 136.708333 166.208333 " transform="matrix(0.1875,0,0,0.1875,0,0)"/>
<path style="fill:none;stroke-width:3;stroke-linecap:round;stroke-linejoin:miter;stroke:rgb(11.764706%,14.117647%,49.411765%);stroke-opacity:1;stroke-miterlimit:10;" d="M 98.208333 347.791667 L 98.208333 323.895833 " transform="matrix(0.1875,0,0,0.1875,0,0)"/>
<path style="fill:none;stroke-width:3;stroke-linecap:round;stroke-linejoin:miter;stroke:rgb(11.764706%,14.117647%,49.411765%);stroke-opacity:1;stroke-miterlimit:10;" d="M 98.208333 316.791667 L 98.208333 307.5 " transform="matrix(0.1875,0,0,0.1875,0,0)"/>
<path style="fill:none;stroke-width:3;stroke-linecap:round;stroke-linejoin:miter;stroke:rgb(11.764706%,14.117647%,49.411765%);stroke-opacity:1;stroke-miterlimit:10;" d="M 277.5 391.5 L 267.208333 402.604167 " transform="matrix(0.1875,0,0,0.1875,0,0)"/>
<path style="fill:none;stroke-width:3;stroke-linecap:round;stroke-linejoin:miter;stroke:rgb(11.764706%,14.117647%,49.411765%);stroke-opacity:1;stroke-miterlimit:10;" d="M 410 362.291667 C 410 368.395833 405 373.395833 398.895833 373.395833 " transform="matrix(0.1875,0,0,0.1875,0,0)"/>
<path style="fill:none;stroke-width:3;stroke-linecap:round;stroke-linejoin:miter;stroke:rgb(11.764706%,14.117647%,49.411765%);stroke-opacity:1;stroke-miterlimit:10;" d="M 401.208333 143.395833 C 407.291667 143.395833 412.291667 148.395833 412.291667 154.5 " transform="matrix(0.1875,0,0,0.1875,0,0)"/>
<path style=" stroke:none;fill-rule:nonzero;fill:rgb(85.490196%,52.54902%,49.019608%);fill-opacity:1;" d="M 47.90625 66.28125 C 47.8125 66.28125 47.738281 66.261719 47.664062 66.207031 C 45.507812 64.761719 34.59375 57.28125 31.875 51.601562 C 29.136719 45.863281 30.730469 41.792969 32.53125 39.375 C 33.617188 37.929688 36.601562 35.476562 40.914062 35.476562 C 41.195312 35.476562 41.492188 35.492188 41.773438 35.511719 C 44.15625 35.699219 46.21875 37.011719 47.53125 38.101562 C 47.644531 38.195312 47.757812 38.230469 47.886719 38.230469 C 48.019531 38.230469 48.148438 38.195312 48.242188 38.101562 C 49.554688 37.011719 51.617188 35.699219 54 35.511719 C 54.28125 35.492188 54.582031 35.476562 54.863281 35.476562 C 59.175781 35.476562 62.15625 37.929688 63.242188 39.375 C 65.0625 41.792969 66.636719 45.863281 63.898438 51.601562 C 61.199219 57.28125 50.289062 64.761719 48.132812 66.207031 C 48.074219 66.242188 48 66.28125 47.90625 66.28125 Z M 47.90625 66.28125 "/>
<path style=" stroke:none;fill-rule:nonzero;fill:rgb(11.764706%,14.117647%,49.411765%);fill-opacity:1;" d="M 54.882812 36.039062 C 58.96875 36.039062 61.800781 38.34375 62.8125 39.710938 C 65.269531 42.992188 65.476562 47.023438 63.414062 51.355469 C 60.789062 56.851562 50.195312 64.144531 47.90625 65.679688 C 45.601562 64.144531 35.007812 56.832031 32.398438 51.355469 C 30.335938 47.023438 30.542969 42.992188 33 39.710938 C 34.332031 37.949219 37.367188 36.039062 40.929688 36.039062 C 41.195312 36.039062 41.476562 36.054688 41.757812 36.074219 C 43.988281 36.242188 45.9375 37.5 47.195312 38.53125 C 47.398438 38.699219 47.664062 38.792969 47.90625 38.792969 C 48.167969 38.792969 48.414062 38.699219 48.617188 38.53125 C 49.875 37.5 51.824219 36.242188 54.054688 36.074219 C 54.335938 36.039062 54.617188 36.039062 54.882812 36.039062 M 54.882812 34.914062 C 54.582031 34.914062 54.28125 34.929688 53.980469 34.949219 C 51.507812 35.136719 49.386719 36.449219 47.90625 37.667969 C 46.445312 36.46875 44.304688 35.136719 41.832031 34.949219 C 41.53125 34.929688 41.230469 34.914062 40.929688 34.914062 C 36.695312 34.914062 33.449219 37.238281 32.101562 39.039062 C 30.65625 40.96875 28.257812 45.28125 31.386719 51.84375 C 34.125 57.601562 44.8125 64.96875 47.363281 66.675781 C 47.53125 66.789062 47.71875 66.84375 47.90625 66.84375 C 48.09375 66.84375 48.300781 66.789062 48.449219 66.675781 C 51 64.96875 61.6875 57.601562 64.425781 51.84375 C 67.554688 45.28125 65.136719 40.96875 63.710938 39.039062 C 62.363281 37.238281 59.117188 34.914062 54.882812 34.914062 Z M 54.882812 34.914062 "/>
<path style="fill:none;stroke-width:3;stroke-linecap:round;stroke-linejoin:round;stroke:rgb(11.764706%,14.117647%,49.411765%);stroke-opacity:1;stroke-miterlimit:10;" d="M 308.395833 202.604167 C 316.5 204.291667 322.604167 209 325.395833 212.791667 " transform="matrix(0.1875,0,0,0.1875,0,0)"/>
<path style="fill-rule:nonzero;fill:rgb(41.176471%,67.843137%,96.862745%);fill-opacity:1;stroke-width:2.5;stroke-linecap:round;stroke-linejoin:miter;stroke:rgb(11.764706%,14.117647%,49.411765%);stroke-opacity:1;stroke-miterlimit:10;" d="M 231 283 L 238.708333 288.895833 " transform="matrix(0.1875,0,0,0.1875,0,0)"/>
<path style="fill-rule:nonzero;fill:rgb(41.176471%,67.843137%,96.862745%);fill-opacity:1;stroke-width:2.5;stroke-linecap:round;stroke-linejoin:miter;stroke:rgb(11.764706%,14.117647%,49.411765%);stroke-opacity:1;stroke-miterlimit:10;" d="M 231 275.604167 L 246.395833 287.5 " transform="matrix(0.1875,0,0,0.1875,0,0)"/>
<path style="fill-rule:nonzero;fill:rgb(41.176471%,67.843137%,96.862745%);fill-opacity:1;stroke-width:2.5;stroke-linecap:round;stroke-linejoin:miter;stroke:rgb(11.764706%,14.117647%,49.411765%);stroke-opacity:1;stroke-miterlimit:10;" d="M 242.104167 276.708333 L 246.395833 279.895833 " transform="matrix(0.1875,0,0,0.1875,0,0)"/>
<path style=" stroke:none;fill-rule:nonzero;fill:rgb(100%,100%,100%);fill-opacity:1;" d="M 41.664062 46.292969 C 41.175781 46.273438 41.195312 45.730469 41.195312 45.730469 C 41.175781 46.332031 40.6875 46.292969 40.6875 46.292969 C 40.6875 46.292969 41.195312 46.351562 41.195312 46.855469 C 41.195312 46.855469 41.25 46.351562 41.664062 46.292969 "/>
<path style=" stroke:none;fill-rule:nonzero;fill:rgb(100%,100%,100%);fill-opacity:1;" d="M 42.054688 43.273438 C 40.914062 43.21875 40.929688 41.945312 40.929688 41.945312 C 40.894531 43.351562 39.75 43.273438 39.75 43.273438 C 39.75 43.273438 40.929688 43.386719 40.929688 44.570312 C 40.949219 44.570312 41.101562 43.386719 42.054688 43.273438 "/>
<path style=" stroke:none;fill-rule:nonzero;fill:rgb(100%,100%,100%);fill-opacity:1;" d="M 39.769531 45.523438 C 37.761719 45.414062 37.820312 43.199219 37.820312 43.199219 C 37.761719 45.636719 35.757812 45.523438 35.757812 45.523438 C 35.757812 45.523438 37.820312 45.710938 37.820312 47.792969 C 37.820312 47.792969 38.082031 45.710938 39.769531 45.523438 "/>
</g>
</svg>
